<svg width="102" height="19" viewBox="0 0 102 19" fill="none" xmlns="http://www.w3.org/2000/svg">
<g clip-path="url(#clip0_135_3364)">
<path d="M1.50647 17.3435C0.611532 16.0812 0.167277 14.5677 0.241992 13.0358V6.65115C0.133616 5.10273 0.550052 3.56245 1.42744 2.26653C2.29676 1.26653 3.64027 0.804993 5.61601 0.804993C7.59176 0.804993 8.85623 1.26653 9.64653 2.11269C10.5045 3.1844 10.9266 4.52635 10.832 5.88192V7.42038H6.95952V5.65115C6.9908 5.12788 6.91006 4.60399 6.72243 4.11269C6.62214 3.91437 6.46318 3.74979 6.26601 3.64012C6.06884 3.53046 5.84247 3.48072 5.61601 3.4973C5.06281 3.4973 4.66766 3.65115 4.5096 4.03576C4.33081 4.58232 4.2506 5.15488 4.27251 5.72807V13.9588C4.23077 14.515 4.33978 15.072 4.58863 15.5742C4.74669 15.9588 5.14184 16.1127 5.69504 16.1127C6.24825 16.1127 6.56437 15.9588 6.72243 15.5742C6.90211 15.0544 6.98247 14.5069 6.95952 13.9588V12.1127H10.832V13.6511C10.9123 15.0288 10.4928 16.3902 9.64653 17.4973C8.85623 18.4204 7.51273 18.8819 5.61601 18.8819C3.7193 18.805 2.29676 18.3435 1.50647 17.3435Z" fill="#111111"/>
<path d="M15.4947 1.03577H19.9994L23.3187 18.5742H19.6833L19.0511 14.8819H16.4431L15.8108 18.5742H12.0965L15.4947 1.03577ZM18.7349 12.5742L17.7866 5.72807L16.8382 12.5742H18.7349Z" fill="#111111"/>
<path d="M26.0847 3.95884H23.3977V1.03577H32.8022V3.88192H30.1152V18.5742H26.0847V3.95884Z" fill="#111111"/>
<path d="M39.9939 1.03577H46.9485V2.88192H42.4439V8.65115H46.0792V10.4204H42.4439V16.8819H46.9485V18.6512H39.9149V1.03577H39.9939Z" fill="#111111"/>
<path d="M49.0033 1.03577H50.742L55.8789 12.6511V1.03577H57.9337V18.5742H56.3531L51.1371 6.57423V18.5742H49.0033V1.03577Z" fill="#111111"/>
<path d="M61 1H67.9546V2.84615H63.4499V8.61538H67.0853V10.3846H63.4499V16.8462H67.9546V18.6154H61V1Z" fill="#111111"/>
<path d="M69.314 1.03577H72.9493C74.3794 0.939617 75.8006 1.31935 76.9799 2.11269C77.8492 2.805 78.2443 4.03577 78.2443 5.65115C78.2443 7.88192 77.5331 9.26654 76.0315 9.72808L78.5605 18.4973H76.1105L73.7396 10.2665H71.7639V18.4973H69.235V1.03577H69.314ZM72.7913 8.57423C73.606 8.63958 74.4181 8.42152 75.0831 7.95885C75.5573 7.57423 75.7944 6.805 75.7944 5.65115C75.8163 5.07796 75.7361 4.5054 75.5573 3.95885C75.3794 3.56666 75.074 3.2423 74.688 3.03577C74.1437 2.79434 73.5462 2.6886 72.9493 2.72808H71.8429V8.49731H72.7913V8.57423Z" fill="#111111"/>
<path d="M81.4055 17.2665C80.584 15.9216 80.1984 14.3666 80.2991 12.805V6.95884C80.2796 5.8441 80.4125 4.73179 80.6942 3.65115C80.9587 2.84362 81.4857 2.14167 82.1958 1.65115C83.0782 1.14274 84.0962 0.901726 85.1199 0.958841C86.7795 0.958841 87.965 1.34346 88.6762 2.18961C89.4944 3.30691 89.8858 4.66737 89.7827 6.03576V6.65115H87.4118V6.11269C87.4153 5.46845 87.3625 4.8251 87.2537 4.18961C87.1871 3.78803 86.9598 3.42848 86.6215 3.18961C86.1773 2.90582 85.6501 2.77078 85.1199 2.80499C84.5533 2.76965 83.9924 2.93343 83.5393 3.26653C83.3534 3.41901 83.2015 3.60681 83.0927 3.81844C82.984 4.03007 82.9209 4.26107 82.9071 4.4973C82.8029 5.18498 82.7501 5.87911 82.749 6.57423V13.1127C82.6908 14.1088 82.8524 15.1056 83.2232 16.0358C83.5393 16.6511 84.1715 16.8819 85.1199 16.8819C85.4943 16.9273 85.8742 16.8639 86.2117 16.6997C86.5492 16.5354 86.8293 16.2777 87.0166 15.9588C87.4342 14.9861 87.6232 13.9349 87.5698 12.8819V11.6511H85.278V9.88192H89.8617V18.5742H88.2811L88.044 16.5742C87.8368 17.2445 87.4054 17.8281 86.8183 18.2323C86.2312 18.6365 85.5221 18.8381 84.8038 18.805C84.1508 18.8424 83.4984 18.7214 82.9053 18.4529C82.3122 18.1844 81.7969 17.7767 81.4055 17.2665Z" fill="#111111"/>
<path d="M94.9196 12.4204L91.0471 1.11269H93.418L96.1841 9.57422L98.8711 1.11269H101.242L97.3695 12.4204V18.5742H94.9986V12.4204H94.9196Z" fill="#111111"/>
</g>
<defs>
<clipPath id="clip0_135_3364">
<rect width="101" height="18" fill="white" transform="translate(0.241982 0.804993)"/>
</clipPath>
</defs>
</svg>
