<svg width="30" height="22" viewBox="0 0 30 22" fill="none" xmlns="http://www.w3.org/2000/svg">
<path d="M0 4.33876C0 3.48373 0.551896 3.02268 1.65569 2.95562L5.90909 2.98077C6.19455 2.98077 6.38486 3.10651 6.48002 3.35799C6.91773 4.61538 7.40777 5.70094 7.95015 6.61465C8.49253 7.52835 9.20144 8.58038 10.0769 9.77071C10.153 9.9216 10.2767 9.99704 10.448 9.99704C10.5812 9.99704 10.6858 9.93836 10.762 9.82101L10.8476 9.54438L10.8762 5.19379C10.8762 4.89201 10.7953 4.69083 10.6335 4.59024C10.4717 4.48965 10.172 4.4142 9.7343 4.36391C9.39174 4.31361 9.22047 4.12919 9.22047 3.81065C9.22047 3.74359 9.22998 3.69329 9.24901 3.65976C9.64866 2.57002 10.7905 2.02515 12.6746 2.02515L14.2732 2C14.9963 2 15.5958 2.15927 16.0716 2.47781C16.5474 2.79635 16.7852 3.29931 16.7852 3.98669V9.69527C16.9185 9.77909 17.0422 9.82101 17.1563 9.82101C17.4418 9.82101 17.6892 9.67012 17.8986 9.36834C19.992 6.78649 21.1243 5.05966 21.2956 4.18787C21.2956 4.1711 21.3146 4.12919 21.3527 4.06213C21.4859 3.81065 21.7047 3.5927 22.0092 3.40828C22.3137 3.22387 22.5802 3.09813 22.8085 3.03107C22.8846 2.99753 22.9703 2.98077 23.0654 2.98077H27.4901L27.7756 3.00592C28.1562 3.00592 28.4512 3.16519 28.6605 3.48373C28.7366 3.58432 28.789 3.69329 28.8175 3.81065C28.8461 3.92801 28.8651 4.04536 28.8746 4.16272C28.8841 4.28008 28.8889 4.34714 28.8889 4.36391V4.53994C28.7557 5.22732 28.4179 5.9608 27.8755 6.74038C27.3331 7.51997 26.6432 8.36243 25.8059 9.26775C24.9685 10.1731 24.4452 10.7682 24.2358 11.0533C24.0646 11.2544 23.9789 11.4389 23.9789 11.6065C23.9789 11.7406 24.055 11.8915 24.2073 12.0592L28.3751 16.6864C28.6034 16.9546 28.7176 17.248 28.7176 17.5666C28.7176 17.9522 28.5463 18.2707 28.2038 18.5222C27.8612 18.7737 27.4521 18.9162 26.9763 18.9497L26.491 18.9749H22.152C22.1329 18.9749 22.0949 18.979 22.0378 18.9874C21.9807 18.9958 21.9426 19 21.9236 19C21.5049 19 21.1148 18.8407 20.7532 18.5222C20.62 18.3881 19.7255 17.3989 18.0698 15.5547C17.9747 15.4374 17.8415 15.3284 17.6702 15.2278C17.5941 15.4961 17.4941 15.8817 17.3704 16.3846C17.2467 16.8876 17.1563 17.248 17.0993 17.466L17.0136 17.8935C16.8233 18.4803 16.4237 18.8323 15.8147 18.9497L15.415 18.9749H12.6175C11.0379 18.9749 9.46311 18.3378 7.89306 17.0636C6.32301 15.7894 4.90997 14.1423 3.65393 12.122C2.39789 10.1018 1.22749 7.75049 0.142732 5.06805C0.0475772 4.8501 0 4.607 0 4.33876ZM17.1563 10.8521C16.7567 10.8521 16.3951 10.7557 16.0716 10.5629C15.7481 10.3701 15.5863 10.106 15.5863 9.77071V3.98669C15.5863 3.65138 15.4911 3.41248 15.3008 3.26997C15.1105 3.12747 14.7775 3.05621 14.3017 3.05621L12.6746 3.10651C11.8562 3.10651 11.2377 3.23225 10.8191 3.48373C11.6564 3.8358 12.0751 4.40582 12.0751 5.19379V9.61982C12.037 10.039 11.8467 10.3868 11.5042 10.6635C11.1616 10.9401 10.781 11.0784 10.3623 11.0784C9.79139 11.0784 9.35368 10.8353 9.04919 10.3491C7.56478 8.37081 6.46099 6.4931 5.73781 4.71598L5.4809 4.06213L1.68423 4.03698C1.43683 4.03698 1.29886 4.04956 1.27031 4.0747C1.24177 4.09985 1.22749 4.1711 1.22749 4.28846C1.22749 4.43935 1.24652 4.59862 1.28459 4.76627L1.88406 6.17456C3.48265 9.81262 5.21922 12.6795 7.09376 14.7751C8.96831 16.8708 10.8095 17.9186 12.6175 17.9186H15.4721C15.5863 17.9186 15.6719 17.8893 15.729 17.8306C15.7861 17.7719 15.8337 17.6588 15.8718 17.4911L15.9289 17.2396L16.4712 15.0266C16.6235 14.7249 16.7567 14.5237 16.8709 14.4231C17.0802 14.2387 17.3276 14.1465 17.6131 14.1465C18.0698 14.1465 18.5361 14.3895 19.0119 14.8757L21.4383 17.5917C21.5905 17.8097 21.7523 17.9186 21.9236 17.9186H26.6337C27.2047 17.9186 27.4901 17.7929 27.4901 17.5414C27.4901 17.4576 27.4616 17.3738 27.4045 17.2899L23.2653 12.7382C22.9417 12.3861 22.78 12.0089 22.78 11.6065C22.78 11.2041 22.9322 10.8185 23.2367 10.4497C23.4841 10.1144 23.9646 9.55695 24.6783 8.77737C25.392 7.99778 26.0152 7.26849 26.5481 6.5895C27.081 5.9105 27.433 5.29438 27.6043 4.74112L27.6899 4.4142C27.6709 4.38067 27.6614 4.32618 27.6614 4.25074C27.6614 4.1753 27.6519 4.11243 27.6329 4.06213H23.1511C22.8656 4.16272 22.6372 4.31361 22.466 4.51479L22.2947 4.9926C21.8189 6.14941 20.5724 7.93491 18.5551 10.3491C18.1555 10.6844 17.6892 10.8521 17.1563 10.8521Z" fill="#666666"/>
</svg>
